<svg xmlns="http://www.w3.org/2000/svg" viewBox="0 0 512 512">
  <defs>
    <linearGradient id="bg" x1="0" y1="0" x2="1" y2="1">
      <stop offset="0%" stop-color="#1a1a2e"/>
      <stop offset="100%" stop-color="#0f3460"/>
    </linearGradient>
  </defs>
  <rect width="512" height="512" rx="96" fill="url(#bg)"/>
  <g transform="translate(256,256)">
    <!-- outer gear -->
    <path d="M0-140 C-20-140-30-132-35-120 L-20-100 C-25-95-30-88-35-80 L-55-80 C-65-80-72-70-70-60 L-55-50 C-58-42-60-35-60-28 L-75-18 C-82-12-82-0-75 6 L-60 16 C-58 22-55 28-50 34 L-58 50 C-62 58-55 68-45 68 L-28 62 C-22 66-16 68-10 70 L-4 86 C0 96 12 96 18 88 L26 72 C32 72 38 70 44 68 L56 80 C64 86 74 80 74 70 L66 54 C70 48 72 42 74 36 L86 24 C93 18 93 6 86 0 L72-8 C72-14 70-20 68-26 L76-40 C80-48 74-58 64-58 L50-50 C44-54 38-56 32-58 L24-74 C20-84 8-84 2-76 L-6-60 C-12-62-18-64-24-64 L-32-80 C-36-90-48-96-60-90 L-50-74 C-42-70-38-62-36-54 L-20-48 C-20-52-18-56-16-60 L-24-78 C-26-88-16-96-6-92 L10-80 C12-78 14-76 16-74 L30-84 C34-90 34-100 26-104 L8-100" fill="none" stroke="#e94560" stroke-width="8" stroke-linejoin="round"/>
    <!-- inner gear -->
    <path d="M0-90 C-14-90-22-82-26-74 L-16-58 C-20-54-24-48-28-42 L-44-42 C-50-42-54-36-52-30 L-42-22 C-44-18-46-12-46-6 L-58 4 C-62 8-60 16-54 18 L-42 24 C-40 28-38 32-34 36 L-40 48 C-42 54-36 60-30 58 L-18 50 C-14 52-10 54-6 54 L2 64 C6 68 14 68 16 62 L22 50 C26 50 30 48 34 46 L44 56 C48 60 56 56 56 50 L50 38 C52 34 54 30 56 26 L66 18 C70 14 70 6 64 4 L54-2 C54-6 52-10 50-14 L56-26 C58-32 52-38 46-38 L36-32 C32-34 28-36 24-38 L18-50 C14-58 6-60 0-56 L-8-42 C-12-44-16-46-20-46 L-24-58 C-26-62-18-66-14-64 L-2-54 C-4-48-4-42-2-38 L16-30 C14-28 12-24 10-20 L-4-28 C-8-32-16-28-14-22 L-6-10 C-8-6-10-2-10 2 L-24 10 C-28 14-26 22-20 22 L-8 18 C-6 20-4 22-2 22 L4 32 C6 36 0 40-2 36 L-10 24 C-14 24-18 22-22 20 L-30 28 C-34 30-38 26-36 22 L-30 12 C-32 8-34 4-34 0 L-44-6 C-48-8-48-16-42-16 L-32-12 C-30-14-28-16-26-18 L-22-30 C-20-34-14-36-10-34" fill="none" stroke="#6ab0f3" stroke-width="5" stroke-linejoin="round"/>
    <!-- X -->
    <line x1="-30" y1="-20" x2="30" y2="20" stroke="#ffd700" stroke-width="10" stroke-linecap="round"/>
    <line x1="30" y1="-20" x2="-30" y2="20" stroke="#ffd700" stroke-width="10" stroke-linecap="round"/>
    <!-- D -->
    <path d="M-6-10 L-6 10" stroke="#7ae0a0" stroke-width="8" stroke-linecap="round"/>
    <path d="M-6-10 C6-10 14-4 14 0 C14 4 6 10-6 10" fill="none" stroke="#7ae0a0" stroke-width="7" stroke-linecap="round"/>
  </g>
  <!-- rim -->
  <rect width="502" height="502" x="5" y="5" rx="92" fill="none" stroke="#e94560" stroke-width="3" opacity="0.5"/>
</svg>